<svg xmlns="http://www.w3.org/2000/svg" version="1.1" xmlns:xlink="http://www.w3.org/1999/xlink" width="512" height="512" x="0" y="0" viewBox="0 0 511 512" style="enable-background:new 0 0 512 512" xml:space="preserve" class=""><g transform="matrix(0.7100000000000002,0,0,0.7100000000000002,74.36213266134251,74.23991592407222)"><path fill="#fed2a4" d="M491.203 230.094c-12.605-10.621-31.406-9.07-42.09 3.543l-68.379 70.281h.07c-3.699-12.711-15.44-21.996-29.34-21.996h-113.25c-14.694-6.426-30.94-9.996-48.015-9.996-47.308 0-88.219 22.933-107.754 66.39l90.399 89.938.168-.133 15.566-15.016a39.963 39.963 0 0 1 27.762-11.214h133.238a79.642 79.642 0 0 0 55.547-22.567l89.621-107.144c10.64-12.59 9.059-31.434-3.543-42.086zm0 0" opacity="1" data-original="#fed2a4"></path><path fill="#ffe781" d="M398.14 109.969c0 55.215-44.757 99.972-99.972 99.972-55.215 0-99.973-44.757-99.973-99.972 0-55.211 44.758-99.973 99.973-99.973 55.215 0 99.973 44.762 99.973 99.973zm0 0" opacity="1" data-original="#ffe781"></path><path fill="#e87288" d="m170.914 454.305-48.418 47.699-112.25-113.11 47.559-47.699c7.804-7.804 20.472-7.808 28.28 0l84.83 84.828c7.855 7.856 7.76 20.52 0 28.282zm0 0" opacity="1" data-original="#e87288"></path><path d="M235.793 347.266a10.013 10.013 0 0 0 0-14.149c-3.906-3.898-10.234-3.898-14.145 0-3.898 3.91-3.898 10.238 0 14.149 3.91 3.898 10.239 3.898 14.145 0zM188.45 109.969c0 60.636 49.331 109.972 109.968 109.972s109.969-49.336 109.969-109.972S359.055 0 298.418 0 188.449 49.332 188.449 109.969zm199.945 0c0 49.613-40.364 89.976-89.977 89.976s-89.977-40.363-89.977-89.976c0-49.61 40.364-89.973 89.977-89.973s89.977 40.363 89.977 89.973zm0 0" fill="#000000" opacity="1" data-original="#000000"></path><path d="M115.652 509.043c3.875 3.906 10.184 3.95 14.11.082l48.468-47.75c8.235-8.234 10.739-20.426 7.118-31.023l10.425-10.055a29.814 29.814 0 0 1 20.817-8.41h132.902c23.578 0 45.863-9.055 62.758-25.496.695-.676-5.277 6.359 90.668-108.313 14.23-16.836 12.102-42.117-4.75-56.363-16.746-14.113-41.832-12.086-56.102 4.46l-58.992 60.634c-7.449-9.168-18.808-14.883-31.082-14.883h-111.48c-15.864-6.637-32.696-9.996-50.063-9.996-48.14 0-90.176 22.234-112.734 63.922-9.504-1.801-19.528 1.074-26.738 8.285L3.418 381.836c-3.883 3.894-3.89 10.195-.016 14.102zm74.793-227.121c15.313 0 30.118 3.082 44.012 9.16a9.979 9.979 0 0 0 4.008.84h113.527c10.84 0 19.996 8.84 19.996 19.992 0 11.027-8.968 19.996-19.996 19.996h-81.566c-5.52 0-9.996 4.477-9.996 9.996 0 5.524 4.476 9.996 9.996 9.996h81.566c22.051 0 39.988-17.937 39.988-39.988 0-1.758-.125-3.5-.351-5.227 57.066-58.66 65.113-66.902 65.457-67.312 7.125-8.41 19.773-9.477 28.187-2.383 8.422 7.121 9.489 19.762 2.344 28.219L397.95 372.406c-13.094 12.57-30.285 19.489-48.457 19.489H216.59c-13.024 0-25.352 4.98-34.703 14.015l-8.496 8.2-78.32-78.317c18.304-34.34 52.652-53.871 95.374-53.871zm-125.32 66.344c3.297-3.297 8.36-3.891 12.379-1.407 1.73 1.055-3.238-3.468 86.59 86.235 3.996 3.996 3.781 10.363.054 14.09l-41.32 40.707-98.23-98.98zM286.172 50.297v11.406c-11.637 4.125-19.996 15.238-19.996 28.274 0 16.476 13.355 29.894 29.812 29.988 5.086.031 9.543 3.789 10.114 8.844.68 6.027-4.04 11.152-9.934 11.152-4.219 0-8.77-2.621-12.832-7.383-3.184-3.738-8.648-4.89-12.863-2.375-5.45 3.254-6.496 10.414-2.59 15.063 5.344 6.355 11.629 10.785 18.289 13.02v11.355c0 5.007 3.555 9.488 8.512 10.203 6.18.886 11.48-3.883 11.48-9.89v-11.72c11.637-4.125 19.996-15.238 19.996-28.273 0-16.477-13.355-29.89-29.812-29.988-5.086-.032-9.543-3.79-10.114-8.844-.68-6.027 4.04-11.152 9.934-11.152 3.46 0 7.113 1.726 10.574 5 3.59 3.386 9.121 4.062 13.086 1.12 5.11-3.784 5.43-11.034 1.059-15.265-5.075-4.91-10.153-7.687-14.723-9.203v-11.64a10 10 0 0 0-11.48-9.891c-4.957.71-8.512 5.191-8.512 10.199zm0 0" fill="#000000" opacity="1" data-original="#000000"></path></g></svg>